<svg width="368" height="440" viewBox="0 0 368 440" fill="none" xmlns="http://www.w3.org/2000/svg">
<path d="M367 46.5V22.5L341.5 1H299.5M1 384.5V414.5L43 439.5H98.5M13.48 14.4797L9.51225 406.29C9.50472 407.034 9.91042 407.721 10.5655 408.073L42.5567 425.262C42.8477 425.418 43.1729 425.5 43.5033 425.5H351C352.105 425.5 353 424.605 353 423.5V26.5704C353 25.9017 352.666 25.2772 352.109 24.9063L334.004 12.8359C333.675 12.6169 333.289 12.5 332.894 12.5H15.4799C14.3832 12.5 13.4911 13.3831 13.48 14.4797Z" stroke="#74777F"/>
</svg>
